<svg xmlns="http://www.w3.org/2000/svg" viewBox="0 0 64 64">
	<rect width="64" height="64" rx="12" fill="#0f172a"/>
	<rect x="6" y="6" width="52" height="52" rx="9" fill="#005bbb"/>
	<path d="M17 16v16c0 5 3 8 8 8s8-3 8-8V16h-7v16c0 2-1 3-2 3s-2-1-2-3V16h-5z" fill="#ffffff"/>
	<path d="M36 16h12v6h-7v5h6v6h-6v8h-5V16z" fill="#ffffff"/>
	<circle cx="43" cy="45" r="8" fill="#facc15"/>
	<path d="M41 42c0-2 1-4 4-4 2 0 4 1 4 4 0 2-1 3-3 4-1 1-1 1-1 2h-4c0-2 1-4 3-5 1-1 1-1 1-2s0-1-1-1-1 1-1 2h-2z" fill="#0f172a"/>
	<circle cx="43" cy="52" r="2" fill="#0f172a"/>
	<path d="M13 48h20" stroke="#facc15" stroke-width="5" stroke-linecap="round"/>
</svg>
